<?xml version="1.0" encoding="utf-8" ?><svg xmlns="http://www.w3.org/2000/svg" xmlns:xlink="http://www.w3.org/1999/xlink" width="606" height="584" viewBox="0 0 606 584"><path fill="#FEFEFE" transform="scale(3.2076 3.2076)" d="M110.585 74.9745C117.957 74.6693 124.192 80.3737 124.543 87.7438C124.893 95.1139 119.227 101.384 111.859 101.78C104.427 102.179 98.0905 96.4525 97.737 89.0182C97.3836 81.5839 103.148 75.2824 110.585 74.9745Z"/><path fill="#FEFEFE" transform="scale(3.2076 3.2076)" d="M79.5957 74.896C84.3562 74.2439 89.0995 76.203 92.0123 80.0244C94.9252 83.8458 95.5572 88.9387 93.6668 93.3562C91.7764 97.7737 87.6558 100.833 82.8803 101.364C75.6254 102.171 69.0696 96.9957 68.1706 89.7516C67.2717 82.5075 72.3635 75.8867 79.5957 74.896Z"/><path fill="#FEFEFE" transform="scale(3.2076 3.2076)" d="M96.6628 50.3049C97.7575 50.2263 100.633 50.9233 101.707 51.3505C109.511 54.455 111.935 64.6551 106.542 71.0429C104.061 73.9858 100.521 75.8329 96.688 76.184C90.3606 75.676 84.378 72.1307 83.105 65.5224C82.5133 62.5068 83.1482 59.3798 84.8691 56.8337C87.688 52.6932 92.0211 51.2099 96.6628 50.3049Z"/><path fill="#FEFEFE" transform="scale(3.2076 3.2076)" d="M138.261 75.0133C143.468 74.5114 149.997 78.3974 151.631 83.4694C152.678 86.7205 152.35 91.9241 150.805 95.0175C148.94 98.7531 145.628 100.445 141.834 101.712C137.597 102.783 130.447 98.6702 128.05 95.3046C127.839 91.03 127.878 86.0294 127.995 81.7438C130.437 78.1972 134.241 76.2129 138.261 75.0133Z"/><path fill="#FEFEFE" transform="scale(3.2076 3.2076)" d="M123.116 50.8167C138.898 49.4529 144.578 71.3469 128.475 76.0167C123.553 76.7118 116.313 74.0266 113.763 69.5426C112.477 67.2796 112.849 60.6428 113.017 57.8494C115.592 53.9834 118.759 52.099 123.116 50.8167Z"/><path fill="#FEFEFE" transform="scale(3.2076 3.2076)" d="M95.4237 100.821C100.577 100.375 107.457 104.798 108.775 109.74C111.44 119.736 104.588 123.489 96.742 125.999C94.7647 126.183 90.4314 124.578 88.8746 123.518C80.3323 117.702 81.1547 105.945 91.0824 102.121C92.6979 101.498 93.7438 101.198 95.4237 100.821Z"/><path fill="#FEFEFE" transform="scale(3.2076 3.2076)" d="M124.277 99.9828C127.908 99.6006 135.736 103.417 136.645 107.426C139.055 118.053 135.414 122.384 125.881 125.714C121.833 126.717 114.479 123.144 113.321 119.038C112.525 116.211 112.884 110.737 112.999 107.659C115.159 104.836 121.083 101.732 124.277 99.9828Z"/><path fill="#FEFEFE" transform="scale(3.2076 3.2076)" d="M53.2683 75.0345C57.4868 74.615 62.4979 78.7295 65.1571 81.6258C63.5788 87.7094 64.2103 89.1578 65.3895 95.2622C61.2494 98.4492 58.9789 99.9077 53.8951 101.176C37.6515 99.747 35.4829 79.9791 53.2683 75.0345Z"/><path fill="#FEFEFE" transform="scale(3.2076 3.2076)" d="M67.179 99.779C70.5332 100.373 77.7073 105.722 79.9643 108.641C81.5061 118.074 78.8663 124.94 68.2908 125.219C65.3842 125.015 64.3126 124.79 61.6289 123.442C56.0987 120.664 53.3166 112.212 56.2921 106.782C58.2626 103.186 63.281 100.866 67.179 99.779Z"/><path fill="#FEFEFE" transform="scale(3.2076 3.2076)" d="M67.4601 50.8068C76.882 50.0179 82.9256 59.9545 79.4739 68.1813C77.9009 71.9303 71.1436 74.668 67.6373 76.0552C65.291 76.5105 64.0139 75.5211 62.001 74.6617C58.2893 73.0771 56.2137 70.8547 55.3066 66.8695C53.5187 59.0152 60.2156 52.4141 67.4601 50.8068Z"/><path fill="#FEFEFE" transform="scale(3.2076 3.2076)" d="M41.0295 51.8325C43.7671 51.6317 44.8935 51.9574 47.3335 53.1601C52.8857 55.4838 52.4665 58.3499 51.6148 63.5533C51.3216 65.3446 52.3251 68.5388 52.1103 68.9288C50.6275 71.6211 44.0236 75.5007 41.4161 76.8262C39.2481 77.7201 36.974 76.2308 35.065 75.1107C24.685 69.02 31.2872 54.4291 41.0295 51.8325Z"/><path fill="#FEFEFE" transform="scale(3.2076 3.2076)" d="M150.391 51.8331C161.789 52.4548 170.705 71.3922 152.835 77.3601C152.636 77.2905 152.439 77.2142 152.244 77.1312C150.966 76.5841 148.34 74.4992 146.866 73.7183C145.701 73.1014 143.58 71.7976 142.573 70.9297C139.864 68.5925 141.808 66.5316 141.903 63.6647C141.979 61.3961 141.619 60.1208 140.77 58.0368C143.484 54.2029 145.815 52.6587 150.391 51.8331Z"/><path fill="#FEFEFE" transform="scale(3.2076 3.2076)" d="M82.5926 29.2718C82.6658 29.2598 82.7391 29.2478 82.8123 29.2359C90.7743 29.0415 97.3853 36.5902 94.38 44.278C93.1546 47.4127 86.566 50.998 83.6381 52.0226C79.1587 53.0396 72.2458 48.5247 71.4073 44.0083C69.8198 35.4571 75.0531 31.3312 82.5926 29.2718Z"/><path fill="#FEFEFE" transform="scale(3.2076 3.2076)" d="M107.31 29.8343C109.553 29.6135 111.072 29.7686 113.361 30.287C119.745 31.7331 123.3 38.8462 122.025 44.953C121.501 47.4595 115.145 50.6599 112.82 51.936L110.443 52.8233C107.883 51.5282 102.213 48.5311 100.263 46.634C98.1649 44.5936 98.8367 37.6751 99.022 34.6044C101.064 32.3869 104.334 30.5025 107.31 29.8343Z"/><path fill="#FEFEFE" transform="scale(3.2076 3.2076)" d="M152.436 100.232C167.499 104.165 163.99 120.567 150.039 124.958C149.589 125.063 148.503 125.298 148.057 125.204C146.029 125.151 140.341 121.799 140.486 119.4C140.709 115.699 140.936 110.119 140.993 106.211C141.565 105.843 142.16 105.561 142.785 105.299C146.15 103.883 149.286 102.074 152.436 100.232Z"/><path fill="#FEFEFE" transform="scale(3.2076 3.2076)" d="M39.5122 100.292C40.9157 99.8799 54.2232 106.103 51.9207 109.645C51.0395 111.001 52.0461 115.24 52.0762 116.888C52.1592 121.444 48.329 123.605 44.3812 124.187C42.0584 124.284 40.0057 123.736 37.9683 122.633C34.7734 120.922 32.402 117.997 31.3896 114.518C29.0768 106.674 32.1051 102.405 39.5122 100.292Z"/><path fill="#FEFEFE" transform="scale(3.2076 3.2076)" d="M110.567 124.242C113.083 125.012 122.327 129.536 122.125 132.588C121.598 140.545 117.514 144.824 109.562 145.174C100.66 145.278 96.2348 141.425 98.3419 132.16C99.084 128.897 107.618 125.629 110.567 124.242Z"/><path fill="#FEFEFE" transform="scale(3.2076 3.2076)" d="M82.5046 123.724C82.9631 123.856 84.3449 124.747 84.8649 125.064C88.3794 127.209 91.4198 128.297 93.9611 131.618C94.3357 134.314 94.222 137.76 93.9691 140.476C91.3205 143.848 87.2285 145.949 82.9394 146.117C76.791 144.61 69.3023 139.443 71.1142 131.862C71.8577 128.75 79.5392 125.077 82.5046 123.724Z"/><path fill="#FEFEFE" transform="scale(3.2076 3.2076)" d="M135.164 30.8406C143.79 31.6163 146.062 36.6268 147.955 44.0552C147.103 46.8206 146.973 47.2234 144.968 49.4306C143.885 50.6232 139.644 53.7745 138.158 53.7944C134.615 51.4919 131.21 49.0112 127.45 46.9843C125.496 45.5631 125.41 42.3279 125.011 40.3865C123.615 33.5872 129.304 31.4842 135.164 30.8406Z"/><path fill="#FEFEFE" transform="scale(3.2076 3.2076)" d="M58.0447 30.8276C62.2874 30.6181 66.0846 32.5172 68.1973 36.2093C68.6209 47.3372 64.4201 47.6644 55.9029 53.039C55.7225 53.0884 55.442 53.1496 55.262 53.1788C53.5699 53.2656 50.5734 51.4818 49.2425 50.5516C44.7657 47.423 44.8255 40.5023 48.0321 36.4889C51.0161 32.7542 53.4083 31.459 58.0447 30.8276Z"/><path fill="#FEFEFE" transform="scale(3.2076 3.2076)" d="M162.752 75.9832C163.541 76.0222 165.217 76.9263 165.983 77.3077C171.905 80.3089 174.815 87.4178 172.032 93.6004C170.207 97.6554 168.336 99.2017 164.312 100.864C162.397 101.495 161.86 101.259 160.08 100.445C158.839 99.8784 155.916 98.0443 155.41 96.7081C154.227 93.5906 156.226 88.9256 155.727 85.4236C155.499 83.8224 155.332 83.3627 154.829 81.8684C157.181 78.6915 159.307 77.7531 162.752 75.9832Z"/><path fill="#FEFEFE" transform="scale(3.2076 3.2076)" d="M29.6549 75.7309C32.0751 76.6252 36.3011 79.7114 38.1529 81.522C36.6014 87.2783 37.0745 89.5625 38.2406 95.3407C36.2461 97.3988 32.317 101.117 29.4306 101.247C29.141 101.131 28.8529 101.011 28.5665 100.887C16.0114 95.4467 17.0582 80.6249 29.6549 75.7309Z"/><path fill="#FEFEFE" transform="scale(3.2076 3.2076)" d="M55.423 123.302C56.1641 123.393 56.2715 123.715 56.8336 124.261C59.549 126.897 63.2776 127.763 66.7207 129.262C68.0803 138.106 70.8282 142.274 60.1433 145.153C52.1282 144.794 45.1659 138.231 47.0815 128.725C47.4769 126.763 53.3495 124.241 55.423 123.302Z"/><path fill="#FEFEFE" transform="scale(3.2076 3.2076)" d="M137.212 123.947C138.464 123.912 140.614 124.86 141.8 125.389C146.634 127.547 147.154 132.692 144.812 137.021C142.387 141.503 138.892 143.443 134.169 144.929C133.338 145.039 130.121 144.335 129.233 143.998C123.271 141.734 124.584 134.668 126.369 130.095C128.493 128.518 134.476 125.564 137.212 123.947Z"/><path fill="#FEFEFE" transform="scale(3.2076 3.2076)" d="M94.1187 11.817C99.874 11.2086 103.677 14.4464 106.938 18.72C107.307 20.9358 107.233 23.0567 107.132 25.2802C104.017 26.8826 100.672 28.9774 97.638 30.7909C95.5858 31.7589 92.1516 28.9453 89.9942 28.0912C80.1817 24.2066 86.3796 13.3107 94.1187 11.817Z"/><path fill="#FEFEFE" transform="scale(3.2076 3.2076)" d="M118.184 13.0248C123.164 12.6136 129.217 15.7126 131.44 20.2774C132.46 22.3734 132.283 24.1307 132.215 26.3613C129.928 28.2654 127.347 29.7824 124.751 31.2149C124.541 31.3237 124.33 31.4285 124.116 31.5292C123.648 31.7501 122.963 32.1696 122.48 31.8578C119.986 30.2491 114.055 27.3398 112.068 25.5833C111.678 25.2416 111.386 24.8019 111.223 24.3097C110.698 22.7648 110.611 18.4018 111.454 16.8585C112.741 14.5023 115.768 13.7957 118.184 13.0248Z"/><path fill="#FEFEFE" transform="scale(3.2076 3.2076)" d="M72.2507 13.312C75.4191 12.419 80.0767 15.1007 81.9758 17.6322C83.452 27.6865 77.9907 26.9982 70.5978 31.8757C70.5247 31.8817 69.8555 32.028 69.7723 31.944C68.5901 30.751 61.2366 27.1596 61.0255 26.1409C59.5245 18.9005 66.028 14.6122 72.2507 13.312Z"/><path fill="#FEFEFE" transform="scale(3.2076 3.2076)" d="M32.5852 34.781C37.1853 34.5238 39.2066 36.261 42.1099 39.6625C42.025 41.7205 41.0657 45.2663 40.5234 47.2943C37.1612 49.9775 35.0124 50.6412 31.4029 54.1069C31.0855 54.3957 30.6677 54.7102 30.3261 54.9834C29.4125 55.3369 27.6694 54.6175 26.7637 54.2431C22.3365 52.4131 22.3117 46.7495 24.1426 43.0724C26.1629 39.0148 28.3258 36.3669 32.5852 34.781Z"/><path fill="#FEFEFE" transform="scale(3.2076 3.2076)" d="M157.315 34.792C166.916 34.2953 169.909 43.4582 169.002 51.5397C167.22 53.523 165.54 54.5835 163.023 55.3534C158.859 51.4943 157.721 50.7065 152.832 47.9778C151.304 45.153 150.99 42.0671 150.724 38.9211C152.515 36.8693 154.67 35.4841 157.315 34.792Z"/><path fill="#FEFEFE" transform="scale(3.2076 3.2076)" d="M96.2205 144.768C99.3994 144.665 104.066 148.296 105.902 150.725C106.461 151.463 106.907 152.643 107.233 153.514C104.964 158.957 102.169 160.581 96.5616 162.009C94.6208 161.689 92.199 161.002 90.4174 160.188C87.0377 158.642 84.4139 154.113 86.3698 150.557C87.9383 147.705 93.146 145.63 96.2205 144.768Z"/><path fill="#FEFEFE" transform="scale(3.2076 3.2076)" d="M121.201 143.953C122.802 143.858 129.372 147.666 131.24 148.666C130.482 155.987 126.447 159.041 119.55 160.777C116.47 161.565 111.543 158.639 109.778 155.975C109.949 148.144 115.186 147.486 121.201 143.953Z"/><path fill="#FEFEFE" transform="scale(3.2076 3.2076)" d="M70.892 143.968L71.3511 144.012C79.4307 150.082 82.8472 145.894 81.9931 157.322C78.5397 159.464 77.7472 160.049 73.6561 160.188C67.2851 159.888 60.7956 156.138 61.922 148.956C62.1408 147.561 69.221 144.849 70.892 143.968Z"/><path fill="#FEFEFE" transform="scale(3.2076 3.2076)" d="M170.233 55.7733C176.278 55.4575 180.932 67.3563 178.381 72.2777C177.079 74.7882 176.427 77.1369 173.612 78.4684C171.417 77.1629 166.751 73.9468 164.815 72.3926C166.833 68.442 165.987 62.6414 164.802 58.4781C166.543 56.8625 167.984 56.3589 170.233 55.7733Z"/><path fill="#FEFEFE" transform="scale(3.2076 3.2076)" d="M22.3548 55.7724C24.699 55.7735 26.5092 56.8808 28.062 58.5631C27.0451 63.2125 26.4678 67.9401 28.0581 72.5402C25.2528 73.8491 22.6221 76.0726 20.2417 78.0362C14.6702 79.0392 8.35366 61.7673 22.3548 55.7724Z"/><path fill="#FEFEFE" transform="scale(3.2076 3.2076)" d="M161.714 121.919C164.6 121.848 166.446 125.354 167.188 127.651C165.823 134.492 161.569 140.152 154.309 141.194C146.933 140.261 148.481 134.126 150.321 128.951C150.699 128.687 151.12 128.455 151.532 128.244C155.125 126.403 158.374 124.183 161.714 121.919Z"/><path fill="#FEFEFE" transform="scale(3.2076 3.2076)" d="M30.2645 121.685C31.0959 121.726 31.6138 122.228 32.2235 122.753C35.3864 125.477 39.242 126.861 42.7462 129.061C43.3881 131.294 42.9158 133.524 43.9915 136.265C42.5958 138.698 42.8645 140.004 39.772 140.08C38.4853 140.072 35.3766 140.186 34.2179 139.906C29.081 138.665 25.0825 131.981 25.9731 126.868C26.402 124.406 28.3117 122.941 30.2645 121.685Z"/><path fill="#FEFEFE" transform="scale(3.2076 3.2076)" d="M173.252 99.2259C173.507 99.1958 173.703 99.2658 173.964 99.3198C181.069 105.469 178.578 118.234 169.212 121.176C166.112 121.417 165.459 120.42 163.922 118.033C165.205 112.19 164.831 110.712 165.078 104.833C166.641 103.232 171.242 100.407 173.252 99.2259Z"/><path fill="#FEFEFE" transform="scale(3.2076 3.2076)" d="M48.2002 18.029L48.3006 18.0225C50.5762 17.8904 53.4139 18.8798 55.0593 20.4112C61.0813 26.0157 52.4681 28.3033 48.9022 30.9782C47.4807 32.0445 46.3336 33.1625 45.0999 34.394C42.3167 36.4829 38.8015 33.2198 36.7297 31.2458C37.6773 23.5477 40.9858 20.2395 48.2002 18.029Z"/><path fill="#FEFEFE" transform="scale(3.2076 3.2076)" d="M19.6243 98.7532C20.5437 99.0109 27.0305 103.64 28.2781 104.499C26.4355 110.21 26.828 112.287 28.8803 117.85C27.5414 119.868 27.1984 119.778 24.8055 120.599L24.3807 120.695C21.5279 119.691 19.4976 119.409 17.5374 116.79C15.4898 114.055 14.5107 109.212 15.0407 105.889C15.5429 102.741 17.1165 100.588 19.6243 98.7532Z"/><path fill="#FEFEFE" transform="scale(3.2076 3.2076)" d="M143.446 18.2981C144.242 18.094 145.113 18.4198 145.902 18.6163C152.652 20.2974 160.352 30.7628 150.768 34.7718C149.858 35.1522 149.684 35.4199 148.657 35.0767C147.209 33.6078 145.949 32.4606 144.311 31.1847C141.985 29.374 137.319 27.6575 136.342 24.7044C135.099 20.9461 140.768 19.0458 143.446 18.2981Z"/><path fill="#FEFEFE" transform="scale(3.2076 3.2076)" d="M105.284 1.82483C112.746 1.50553 115.869 3.29191 119.583 9.52842C116.929 10.0178 113.111 11.3472 110.888 12.8343L108.464 14.3764C104.474 11.7321 100.925 10.2747 97.3431 7.92691C97.5056 7.62486 97.6802 7.32955 97.8667 7.04172C99.7897 4.07171 101.849 2.54593 105.284 1.82483Z"/><path fill="#FEFEFE" transform="scale(3.2076 3.2076)" d="M83.9722 1.81392C90.717 1.50101 92.1043 2.93313 95.5569 8.34342C92.1308 9.40551 87.7159 11.2436 84.9241 13.5476L84.3566 13.978C84.2899 13.9807 75.5104 9.95499 73.4827 9.45259C76.0571 4.81976 78.5605 2.58815 83.9722 1.81392Z"/><path fill="#FEFEFE" transform="scale(3.2076 3.2076)" d="M146.821 140.938C148.457 140.884 150.204 143.438 150.235 145.066C150.368 152.013 143.709 155.793 137.523 156.166C132.461 155.019 132.901 149.426 136.504 147.291C140.207 145.097 143.352 143.559 146.821 140.938Z"/><path fill="#FEFEFE" transform="scale(3.2076 3.2076)" d="M45.1893 140.663C47.228 140.877 48.8516 143.771 50.4061 144.538C54.7649 146.69 64.615 150.482 55.4569 155.443C51.6094 157.057 46.0139 153.622 43.9872 150.329C41.4808 146.258 40.8404 143.571 45.1893 140.663Z"/><path fill="#FEFEFE" transform="scale(3.2076 3.2076)" d="M65.5885 7.31476C66.7746 7.09826 69.4027 8.14171 69.912 9.21854C69.8333 10.3296 67.8014 11.4661 66.8024 12.061C63.6021 13.9668 61.4429 16.0428 58.918 18.7321L58.5003 18.9097C55.1749 17.7955 54.1043 15.4694 56.2063 12.3729C58.4753 9.03021 61.8163 8.01524 65.5885 7.31476Z"/><path fill="#FEFEFE" transform="scale(3.2076 3.2076)" d="M126.744 7.86426C133.136 7.88238 136.188 9.87575 138.421 16.0199C137.388 17.336 136.006 18.5076 134.648 19.4729C133.608 19.0243 130.868 15.2045 129.649 14.184C127.838 12.6684 122.612 11.0963 123.443 8.25652C124.167 7.87533 125.844 7.90144 126.744 7.86426Z"/><path fill="#FEFEFE" transform="scale(3.2076 3.2076)" d="M107.912 159.916C108.618 160.03 112.215 162.073 113.239 162.5C114.631 163.082 115.258 163.282 116.768 163.699C113.818 166.304 111.603 167.875 107.623 168.082C103.387 168.122 102.053 168.098 98.7229 165.476C101.387 163.43 104.792 162.324 107.912 159.916Z"/><path fill="#FEFEFE" transform="scale(3.2076 3.2076)" d="M84.432 160.316C84.7097 160.27 92.712 164.853 94.1016 165.467C90.9866 167.091 89.7617 167.952 86.2905 168.147C83.5507 168.147 78.7679 166.664 77.0005 164.566C76.8157 163.707 77.017 163.367 77.8588 162.995C79.9685 162.063 82.302 161.186 84.432 160.316Z"/><path fill="#FEFEFE" transform="scale(3.2076 3.2076)" d="M175.434 80.7559C182.799 81.678 181.999 91.3771 178.616 96.0661C177.628 96.8645 176.638 97.5013 175.503 96.7804C174.592 94.7464 176.154 89.508 175.829 86.9742C175.604 85.225 174.509 81.9825 175.434 80.7559Z"/><path fill="#FEFEFE" transform="scale(3.2076 3.2076)" d="M15.1177 80.7681C16.8376 80.9486 17.7281 81.7068 17.1153 83.6291C15.6229 88.3108 16.6423 90.709 17.4923 95.283C17.6227 95.9848 17.2782 96.3917 16.877 96.8561C15.8839 97.1117 16.2598 97.0865 15.2178 96.8083C14.3345 96.0331 13.6043 95.0992 13.0648 94.0551C11.0001 90.12 10.5612 83.0689 15.1177 80.7681Z"/></svg>