<?xml version="1.0" encoding="utf-8" ?><svg xmlns="http://www.w3.org/2000/svg" xmlns:xlink="http://www.w3.org/1999/xlink" width="193" height="207" viewBox="0 0 193 207"><path fill="#581A20" d="M110.366 92.0664C118.59 91.1204 126.042 96.9715 127.075 105.185C128.108 113.399 122.336 120.913 114.134 122.032C108.751 122.767 103.387 120.553 100.09 116.235C96.7917 111.917 96.0678 106.16 98.1938 101.16C100.32 96.16 104.968 92.6873 110.366 92.0664Z"/><path fill="#581A20" d="M77.8223 92.044C85.987 90.9002 93.5399 96.5726 94.7173 104.732C95.8947 112.892 90.2535 120.469 82.0985 121.68C73.8959 122.898 66.2658 117.216 65.0816 109.009C63.8973 100.801 69.61 93.1945 77.8223 92.044Z"/><path fill="#581A20" d="M95.6854 65.2971C103.698 65.1512 110.325 71.504 110.517 79.516C110.708 87.528 104.394 94.1907 96.3829 94.4283C88.3071 94.6679 81.5784 88.2905 81.385 80.2134C81.1916 72.1364 87.6074 65.4443 95.6854 65.2971Z"/><path fill="#581A20" d="M140.799 92.2773C144.298 91.9687 146.957 92.7894 150.004 94.4803C158.654 99.2814 159.269 112.391 151.995 118.649C149.838 120.504 147.64 121.321 144.93 122.009C142.108 122.156 140.693 121.781 138.226 120.766C122.699 114.376 132.757 108.509 129.264 100.391C131.074 96.6087 136.797 93.2557 140.799 92.2773Z"/><path fill="#581A20" d="M94.4948 120.052C105.029 118.59 115.154 130.793 108.819 140.516C105.906 144.986 102.255 146.661 97.3505 147.885C93.8284 148.271 90.2823 147.414 87.3259 145.461C81.1341 141.395 79.2342 132.906 83.317 126.692C85.6117 123.2 90.5135 120.846 94.4948 120.052Z"/><path fill="#581A20" d="M125.146 66.0537C141.127 64.1853 150.281 88.3863 129.732 94.4758C129.555 94.5144 129.378 94.5501 129.2 94.5826C125.23 95.297 120.342 91.8196 116.994 89.9712C111.994 87.2112 111.855 76.278 114.899 72.0951C117.182 68.957 121.347 66.7074 125.146 66.0537Z"/><path fill="#581A20" d="M126.353 119.291C129.405 119.191 132.093 120.386 134.79 121.807C141.677 125.437 142.792 134.173 139.144 140.553C136.764 144.715 132.34 146.621 127.783 147.782C123.371 148.575 118.364 146.464 115.493 143.063C112.236 139.206 112.726 133.318 113.204 128.544C115.783 124.899 122.283 120.703 126.353 119.291Z"/><path fill="#581A20" d="M51.8038 92.37C54.3966 92.488 62.0923 96.8024 62.668 99.8489C62.9613 101.401 61.975 104.442 62.0241 106.221C62.1242 109.852 64.5444 113.611 61.1099 116.434C56.9706 119.776 53.0817 121.208 47.8028 121.026C30.1583 117.809 31.8997 93.5935 51.8038 92.37Z"/><path fill="#581A20" d="M64.7756 119.055C67.6896 118.87 76.7223 125.709 78.6768 128.29C78.7306 128.551 78.7787 128.812 78.821 129.075C80.6768 140.627 77.3659 145.989 65.6461 147.782C49.2123 146.077 43.3845 123.652 64.7756 119.055Z"/><path fill="#581A20" d="M65.0743 66.0544C70.9955 65.7624 77.229 69.2613 78.7213 75.2687C81.41 86.0926 75.2019 91.5933 65.2634 94.0024C48.5315 95.3581 44.2884 70.2351 65.0743 66.0544Z"/><path fill="#581A20" d="M37.3931 67.0578C41.3562 66.6767 46.2705 69.1953 48.4793 72.5077C49.8101 74.5033 48.1187 78.2829 48.1733 80.5418C48.2234 82.6099 49.1977 85.2542 48.6264 87.2638C47.1536 89.3054 38.9475 94.1021 36.3959 94.9887C30.3517 95.8528 25.2229 91.1778 24.172 85.3617C23.4643 81.3232 24.4017 77.1693 26.7753 73.8261C29.5057 69.9357 32.7721 67.8535 37.3931 67.0578Z"/><path fill="#581A20" d="M153.117 67.3078C164.012 66.6366 171.131 78.276 167.301 87.9978C165.726 91.9968 162.428 93.6082 158.741 95.0625C157.119 95.6399 156.427 95.8411 154.963 94.741C152.835 93.1404 146.252 89.7734 144.685 88.1095C143.735 87.1001 144.032 74.4561 144.009 72.7435C146.098 70.0257 149.781 68.0177 153.117 67.3078Z"/><path fill="#581A20" d="M80.2476 43.0471C90.4729 42.0133 96.9875 49.4152 94.6966 59.3722C93.8727 62.953 85.7854 66.5412 82.5298 68.2979C79.0978 69.6702 78.9302 68.2953 75.8883 66.9712C62.9568 61.3419 67.563 45.5801 80.2476 43.0471Z"/><path fill="#581A20" d="M108.68 43.0511C119.205 42.4585 125.928 50.4242 124.083 60.7529C123.674 63.0403 116.181 67.2583 113.972 68.2494C113.158 68.56 112.312 68.8537 111.491 69.1502C109.315 68.3295 101.597 64.0812 99.8735 62.3848C97.1676 59.721 97.9176 53.4816 98.0433 49.7859C98.1055 49.6981 98.1669 49.6098 98.2276 49.521C100.658 46.0048 104.513 43.809 108.68 43.0511Z"/><path fill="#581A20" d="M156.213 119.448C160.251 119.889 165.974 123.456 166.88 127.645C169.046 137.655 163.3 144.472 154.035 146.942C152.82 147.103 151.481 147.151 150.285 146.863C147.866 146.28 145.162 144.941 143.842 142.736C143.316 141.857 143.062 140.918 143.007 139.9C142.9 137.925 143.568 135.889 143.715 133.913C143.887 131.602 143.547 128.735 144.192 126.557C144.438 125.727 154.874 120.205 156.213 119.448Z"/><path fill="#581A20" d="M33.7346 119.788C37.7531 119.368 43.779 123.249 47.1228 125.482C49.0208 126.919 48.6258 128.229 48.5752 130.055C48.3566 137.946 51.6014 144.354 40.5621 146.148C34.3662 146.972 28.439 142.6 26.022 137.053C24.6928 134.002 24.3692 128.968 25.5667 125.825C26.8196 122.537 30.7178 121.014 33.7346 119.788Z"/><path fill="#581A20" d="M79.812 145.258C82.2328 145.029 83.2552 145.933 85.2172 147.113C89.5012 149.69 93.6659 150.346 94.603 155.902C96.0611 164.548 91.0081 168.504 83.0982 169.853C73.9483 169.978 64.7142 160.647 69.1546 151.614C71.3525 150.215 77.7062 146.066 79.812 145.258Z"/><path fill="#581A20" d="M111.872 145.588C114.964 146.154 120.339 149.662 122.835 151.712C123.74 152.474 124.233 153.475 124.226 154.664C124.168 163.938 118.514 169.052 109.574 169.471C100.068 169.659 93.3079 161.276 98.9105 152.133C99.9915 150.368 109.659 145.846 111.872 145.588Z"/><path fill="#581A20" d="M136.671 44.5809C138.442 44.3491 140.897 44.8817 142.609 45.4605C148.822 47.5608 153.836 55.4845 151.486 61.9392C150.028 65.9459 145.287 68.368 141.524 69.9972C138.863 70.4603 137.911 67.6285 136.095 66.4327C133.724 64.8715 130.551 64.0273 128.185 62.4665C126.562 61.396 127.271 57.2339 126.985 55.5187C126.703 53.5997 125.476 50.939 126.866 49.4266C129.165 46.926 133.365 45.0171 136.671 44.5809Z"/><path fill="#581A20" d="M54.5415 44.3579C57.1844 43.7191 64.0452 46.3072 65.357 49.0245C67.0124 52.4538 65.8337 58.136 64.862 61.5556C64.1713 62.2316 63.5014 62.7029 62.6512 63.1623C59.0228 65.1232 55.7587 67.1713 52.4325 69.6056C52.138 69.7211 51.8286 69.7939 51.5135 69.8217C49.9523 69.9695 46.0721 67.4533 44.7966 66.413C42.6634 64.6733 41.1235 62.6305 40.8512 59.8268C40.532 56.2199 41.6451 52.6324 43.9497 49.8395C46.5589 46.6713 50.4765 44.7448 54.5415 44.3579Z"/><path fill="#581A20" d="M23.991 93.2742C27.2067 93.5143 31.8972 97.2795 34.0045 99.5599C32.6879 103.944 32.3531 110.113 33.9886 114.379C33.7509 114.732 33.5016 115.077 33.2411 115.414C31.0334 118.255 27.8107 120.786 24.1446 121.245C9.66688 118.829 8.53794 97.7516 23.991 93.2742Z"/><path fill="#581A20" d="M167.746 93.314C176.592 94.8899 181.655 104.754 178.248 112.992C176.537 117.127 173.506 119.588 169.486 121.286L166.845 121.751C165.079 121.014 162.184 119.235 160.701 118.028C157.489 115.412 159.656 109.429 159.444 105.834C159.311 103.565 159.063 101.348 158.968 99.0733C160.813 96.9462 165.093 94.3526 167.746 93.314Z"/><path fill="#581A20" d="M51.281 144.436C51.8262 144.479 55.3521 146.408 55.8865 146.93C57.6094 148.652 64.9388 149.904 65.1795 152.381C66.103 161.88 68.2161 166.893 56.8659 168.752C48.1498 169.097 39.8283 159.873 42.1821 151.287C42.9418 148.516 48.8297 145.79 51.281 144.436Z"/><path fill="#581A20" d="M140.06 144.948C141.991 144.996 144.95 146.248 146.604 147.31C151.737 150.614 150.732 157.698 147.637 162.06C144.622 166.31 141.264 167.495 136.402 168.345C133.531 168.275 129.137 167.551 127.203 164.937C124.905 161.831 126.997 157.024 127.097 153.469C127.139 153.004 127.592 151.566 128.037 151.363C132.501 149.337 136.011 147.724 140.06 144.948Z"/><path fill="#581A20" d="M93.6416 24.0873C100.794 23.2459 108.832 28.1122 108.682 35.8873C108.58 41.1495 101.806 42.1419 98.4505 45.0992L98.3807 45.1616C97.946 45.4403 96.7432 46.1815 96.3736 46.0513C93.961 45.2011 85.7327 40.5452 84.3704 39.0392C82.1238 31.8768 85.9564 24.762 93.6416 24.0873Z"/><path fill="#581A20" d="M119.885 25.318C126.641 24.3811 136.477 30.2834 135.907 39.1505C135.764 41.3839 129.033 44.4817 126.643 45.7154L124.292 46.8102C122.639 45.8411 120.928 44.4649 119.204 43.4333C116.973 42.0986 115.04 41.3669 112.704 40.3147C110.833 37.8204 109.746 32.1679 111.62 29.4563C113.219 27.1434 117.222 25.769 119.885 25.318Z"/><path fill="#581A20" d="M70.9143 25.336C73.768 24.9901 78.1372 26.6947 79.8441 29.1142C81.8587 30.7799 81.9519 38.379 79.5731 39.8498C76.0933 42.0014 71.5913 44.3861 67.9443 47.0796C65.2642 44.8078 62.1176 43.3486 59.072 41.5051C55.3706 39.2647 57.4229 34.1328 59.3355 31.2872C61.8156 27.5972 66.6677 26.0738 70.9143 25.336Z"/><path fill="#581A20" d="M28.4089 48.5587C32.9485 48.3672 36.249 50.9789 38.1517 54.9438C37.7444 57.0467 37.1155 60.6521 36.3559 62.551C35.4478 64.8212 31.8738 65.9507 29.9769 67.5956C28.5752 68.8112 27.1687 70.0756 25.77 71.3471C25.5727 71.4524 24.6866 71.8934 24.5056 71.87C12.3387 70.2919 15.9996 56.2242 22.9628 50.8127C24.7594 49.4164 26.1452 48.9025 28.4089 48.5587Z"/><path fill="#581A20" d="M164.018 48.6115C171.77 48.4658 178.515 62.2061 173.995 68.5707C172.486 70.6953 170.568 71.0464 168.292 71.92C167.507 72.2215 167.24 71.7893 166.73 71.3369C161.553 65.7251 161.747 67.2047 156.317 63.7436C155.274 61.9485 154.303 58.2194 154.114 56.1247C153.645 50.9415 159.885 48.8136 164.018 48.6115Z"/><path fill="#581A20" d="M95.7693 167.256C97.2838 167.363 102.638 170.204 104.095 171.098C109.902 174.658 108.635 181.215 103.482 184.59C101.002 186.214 99.0772 186.433 96.2878 186.919C89.5995 186.715 82.3092 182.336 84.2861 174.486C84.901 172.044 93.3948 168.251 95.7693 167.256Z"/><path fill="#581A20" d="M123.483 166.226C125.841 167.603 132.996 170.19 133.908 172.842C134.401 174.274 132.907 177.882 132.032 179.254C129.322 183.501 125.382 184.852 120.666 185.872C113.04 185.591 106.626 181.49 111.894 172.683C112.158 172.242 113.711 171.601 114.23 171.407C117.693 170.114 120.465 168.296 123.483 166.226Z"/><path fill="#581A20" d="M68.384 166.479C69.4172 166.348 72.115 168.89 73.1676 169.482C75.353 170.713 78.9661 171.321 80.6256 173.241C81.5193 174.274 81.329 179.123 81.2046 180.595C81.087 181.779 80.4474 182.545 79.4743 183.202C78.6633 183.749 77.1371 184.55 76.1884 184.792C75.1421 185.06 72.6702 185.753 71.6915 185.581L71.355 185.522C65.6776 184.515 63.1072 183.778 59.2106 178.827C58.2183 177.566 57.4125 175.382 57.7354 173.753C58.3753 170.525 62.9524 169.52 65.4879 168.219C66.6204 167.638 67.3248 167.188 68.384 166.479Z"/><path fill="#581A20" d="M175.729 71.3167C180.496 71.9821 183.681 75.8361 184.986 80.2266C186.229 84.4094 185.968 88.5046 183.877 92.3825C183.016 93.9776 180.481 97.8401 178.357 96.601C175.614 94.2076 172.39 92.756 169.726 90.3384C169.199 89.8814 169.513 88.9133 169.754 88.3512C171.721 83.7665 170.809 79.1893 168.889 74.6004C171.279 72.7246 172.771 71.8756 175.729 71.3167Z"/><path fill="#581A20" d="M15.791 71.8479C24.1378 71.5793 22.9754 75.7363 21.7873 81.8943C21.4592 83.5947 21.655 88.0284 22.7853 89.4185L22.8403 89.485C22.4356 90.7668 15.8216 95.3485 14.3789 95.9829C13.142 96.5493 11.4146 96.1012 10.4734 95.2258C5.25837 90.3754 5.43408 80.9375 9.77195 75.5838C11.461 73.4992 13.1862 72.1526 15.791 71.8479Z"/><path fill="#581A20" d="M166.057 142.9C167.193 142.8 168.952 143.532 169.89 144.19C174.509 147.475 172.533 154.082 169.865 157.947C166.918 162.215 163.204 163.714 158.321 164.623C155.542 164.601 151.629 161.596 151.968 158.564C152.096 157.418 152.438 156.353 152.625 155.035C152.771 154.008 152.985 151.819 153.55 150.791C155.86 148.973 158.829 147.948 161.328 146.417C163.003 145.391 164.532 144.127 166.057 142.9Z"/><path fill="#581A20" d="M24.9887 142.772C27.07 142.986 29.8266 146.355 31.8651 147.442C33.4954 148.311 37.8348 149.091 38.3013 151.009C39.8165 157.239 42.1972 161.269 34.6578 164.007C32.0209 164.084 30.7885 164.054 28.1727 163.077C22.7119 161.038 17.5829 152.919 19.7493 147.17C20.6139 144.876 22.7409 143.655 24.9887 142.772Z"/><path fill="#581A20" d="M178.696 118.199C179.15 118.183 179.708 118.395 180.074 118.645C185.762 122.529 185.585 131.882 182.24 137.218C180.021 140.756 178.423 142.048 174.585 143.067C171.199 143.063 170.151 142.727 168.411 139.748C170.205 134.32 169.711 129.891 169.112 124.447C172.384 122.568 175.587 120.342 178.696 118.199Z"/><path fill="#581A20" d="M13.413 117.965C15.1336 118.464 21.2436 122.862 22.541 124.301C23.2028 125.036 22.0504 129.685 22.1585 131.416C22.3563 134.584 22.6358 136.405 24.1844 139.395C22.3206 141.604 21.5105 141.861 18.8106 142.468C17.737 142.769 16.1976 142.159 15.1865 141.752C6.8477 138.391 4.229 121.611 13.413 117.965Z"/><path fill="#581A20" d="M42.6962 31.0566C42.9566 31.0197 43.2182 30.9907 43.4804 30.9697C46.6044 30.7199 49.2462 31.0958 51.7198 33.1896C54.8993 35.881 55.48 39.2219 51.5709 41.6534C49.7338 42.7961 47.7291 43.8052 45.9168 45.0564C44.1676 46.264 42.966 47.5353 41.5358 49.0964C41.1112 49.5458 40.0335 50.659 39.47 50.6771C37.7126 50.7335 32.1668 47.0458 31.9073 45.433L31.887 45.2987C30.8403 38.6589 36.47 32.5274 42.6962 31.0566Z"/><path fill="#581A20" d="M146.191 31.0634C148.366 30.7889 151.01 31.4515 152.945 32.4547C156.192 34.129 158.631 37.0362 159.716 40.5247C161.646 46.7772 157.786 48.9172 152.456 50.3882C151.162 49.3457 149.822 47.2276 148.338 46.0412C145.76 43.9799 143.031 43.2202 140.361 41.4003C139.169 40.5876 138.611 39.4458 137.851 38.2004C139.868 33.9788 141.438 31.9557 146.191 31.0634Z"/><path fill="#581A20" d="M105.2 13.0567C112.61 11.9057 118.565 15.0729 121.495 21.9273C117.675 23.8287 115.991 23.1308 111.318 26.3019C110.505 26.8446 109.566 27.6056 108.777 28.2094C106.721 25.95 104.452 24.701 101.781 23.3789C100.847 22.9164 97.3492 21.3412 97.0113 20.463C97.3262 16.5015 101.634 13.8056 105.2 13.0567Z"/><path fill="#581A20" d="M82.5928 13.0726C86.978 12.7204 89.9214 13.3171 93.3694 16.2605C97.4274 19.7245 93.8806 21.8948 90.3611 23.0558C87.9952 23.8363 85.4849 25.5941 83.4101 27.0091L82.7538 27.2459C81.8046 27.0467 79.5301 25.3729 78.4101 24.746C76.6562 23.7643 72.0768 23.0306 71.1405 21.8746C71.0514 21.1037 71.6011 20.4396 71.9634 19.7781C74.2703 15.5663 78.0477 13.7659 82.5928 13.0726Z"/><path fill="#581A20" d="M150.669 162.92C151.42 163.099 151.536 163.246 152.148 163.622C157.139 166.68 154.782 172.816 151.509 176.146C148.279 179.431 144.659 180.79 140.106 180.868C136.712 179.79 135.185 178.414 135.868 174.463C136.697 169.662 141.375 169.785 144.365 167.774C146.58 166.284 148.224 164.462 150.669 162.92Z"/><path fill="#581A20" d="M40.878 162.913C41.0704 162.939 41.2628 162.966 41.4553 162.992C43.5453 164.544 44.855 166.344 47.124 167.753C49.519 169.352 54.7319 169.894 55.8777 172.788C57.3101 176.407 55.4856 178.775 52.4381 180.203C51.6566 180.301 50.8636 180.387 50.0756 180.393C46.5332 180.416 43.1309 179.01 40.6374 176.494C37.7302 173.586 36.9941 170.888 37.0115 166.957C38.2054 164.875 38.9126 164.305 40.878 162.913Z"/><path fill="#581A20" d="M128.263 19.0502C135.659 18.6108 140.029 22.2533 141.809 29.2207C140.293 31.6136 139.479 32.0279 137.015 33.5239C135.124 31.7493 133.546 28.3974 130.807 26.5275C127.665 24.3834 125.59 24.5384 123.121 21.6235C124.87 19.7247 125.843 19.5107 128.263 19.0502Z"/><path fill="#581A20" d="M61.2594 19.0593C63.3861 18.8645 68.1024 19.1876 69.0158 21.474C68.5978 24.3245 62.734 25.045 60.5095 27.1837C59.1836 28.4585 58.5857 29.4656 57.5501 30.9549L55.5866 33.1003C55.0927 32.7065 54.2094 32.1499 53.6493 31.8552C47.0266 28.3715 54.3049 21.4427 58.4586 19.8417C59.3801 19.4865 60.2899 19.2733 61.2594 19.0593Z"/><path fill="#581A20" d="M108.63 183.879C109.045 183.968 111.114 185.021 111.579 185.303C113.101 186.224 117.459 187.307 118.225 188.649C117.685 191.762 110.073 193.652 107.283 193.89C102.838 193.846 99.9806 193.124 97.2399 189.497C102.09 188.353 104.737 186.863 108.63 183.879Z"/><path fill="#581A20" d="M83.2272 183.961C84.6376 184.109 86.2649 185.95 87.4946 186.838C88.7329 187.733 93.3596 189.127 93.9933 190.033C94.0223 192.398 87.2953 193.749 85.3924 193.966C79.8179 193.566 77.4604 192.323 73.6923 188.432C75.0093 187.555 80.8107 185.261 83.2272 183.961Z"/><path fill="#581A20" d="M182.168 98.268C189.963 100.744 189.283 110.919 184.409 116.26C180.994 118.374 179.287 116.357 180.511 113.194C182.322 108.511 180.158 104.081 180.181 99.8637C180.518 99.0622 181.39 98.7071 182.168 98.268Z"/><path fill="#581A20" d="M8.58984 97.8636C9.40397 97.9246 10.5483 98.4977 11.1145 99.1032C11.6128 99.6813 11.3284 100.773 11.231 101.507C10.7963 104.783 10.662 108.045 10.8802 111.342C10.9594 112.539 12.1302 114.127 12.0241 115.292C11.8693 116.991 9.95078 117.102 8.69971 116.977C4.42959 114.156 2.87259 107.337 4.77134 102.748C5.69112 100.525 6.84568 99.4363 8.58984 97.8636Z"/></svg>